<?xml version="1.0" encoding="UTF-8" standalone="no"?>
<!DOCTYPE svg PUBLIC "-//W3C//DTD SVG 1.1//EN" "http://www.w3.org/Graphics/SVG/1.1/DTD/svg11.dtd">
<svg width="100%" height="100%" viewBox="0 0 558 173" version="1.1" xmlns="http://www.w3.org/2000/svg" xmlns:xlink="http://www.w3.org/1999/xlink" xml:space="preserve" xmlns:serif="http://www.serif.com/" style="fill-rule:evenodd;clip-rule:evenodd;stroke-linejoin:round;stroke-miterlimit:2;">
    <rect id="Artboard1" x="0" y="0" width="558" height="173" style="fill:none;"/>
    <g transform="matrix(0.969294,0,0,0.969294,0,0)">
        <g>
            <g id="Artboard11" serif:id="Artboard1" transform="matrix(0.888182,0,0,0.888182,0,0)">
                <rect x="0" y="0" width="200" height="200" style="fill:none;"/>
            </g>
            <g transform="matrix(0.888182,0,0,0.888182,0,0)">
                <g opacity="0.85">
                    <path d="M78.505,12.049C92.743,20.269 97.63,38.505 89.406,52.751C81.182,66.995 62.945,71.882 48.707,63.662C34.47,55.442 29.583,37.204 37.806,22.96C46.031,8.714 64.269,3.829 78.505,12.049ZM67.561,31.005C63.784,28.824 58.946,30.125 56.763,33.905C54.581,37.684 55.875,42.524 59.652,44.705C63.429,46.886 68.267,45.586 70.45,41.806C72.632,38.027 71.339,33.186 67.561,31.005Z" style="fill:white;"/>
                    <path d="M182.568,73.221C196.805,81.44 201.693,99.677 193.468,113.922C185.244,128.167 167.006,133.053 152.769,124.833C138.532,116.613 133.645,98.376 141.869,84.132C150.094,69.886 168.33,65.001 182.568,73.221ZM171.624,92.177C167.846,89.996 163.007,91.296 160.825,95.076C158.643,98.856 159.937,103.695 163.714,105.876C167.492,108.057 172.329,106.757 174.511,102.978C176.693,99.198 175.401,94.358 171.624,92.177Z" style="fill:white;"/>
                    <path d="M80.197,135.953C94.434,144.173 99.32,162.41 91.096,176.654C82.872,190.9 64.635,195.785 50.398,187.566C36.161,179.346 31.273,161.11 39.498,146.864C47.722,132.62 65.959,127.733 80.197,135.953ZM69.253,154.909C65.475,152.728 60.636,154.029 58.454,157.808C56.272,161.588 57.565,166.429 61.343,168.61C65.12,170.79 69.958,169.49 72.14,165.71C74.322,161.93 73.03,157.09 69.253,154.909Z" style="fill:white;"/>
                    <path d="M145.583,62.55L145.581,62.551L117.638,62.556L115.536,62.348L113.534,61.74L111.688,60.755L110.054,59.415L108.714,57.78L107.728,55.933L107.12,53.931L106.913,51.83L106.918,23.889L107.136,21.735L107.764,19.711L108.754,17.886L110.06,16.304L111.642,14.998L113.467,14.008L115.491,13.38C115.491,13.38 117.645,13.162 117.643,13.162L145.588,13.154L147.69,13.362L149.691,13.971L151.537,14.956L153.172,16.296L154.512,17.93L155.497,19.777L156.105,21.779L156.313,23.881L156.308,51.825L156.089,53.98L155.461,56.004L154.47,57.829L153.164,59.41L151.582,60.715L149.758,61.705L147.735,62.333L145.583,62.55ZM134.858,41.101L134.859,34.609L128.368,34.611L128.367,41.102L134.858,41.101Z" style="fill:white;"/>
                    <path d="M151.931,187.55L122.233,187.556L120.086,187.344L118.043,186.723L116.16,185.717L114.495,184.352L113.128,182.686L112.121,180.801L111.5,178.757L111.287,176.611L111.294,146.915L111.516,144.717L112.157,142.653L113.167,140.791L114.5,139.176L116.114,137.844L117.976,136.834L120.04,136.193C120.04,136.193 122.239,135.971 122.237,135.971L151.937,135.963L154.083,136.175L156.125,136.796L158.009,137.802L159.673,139.167L161.041,140.833L162.048,142.718L162.669,144.762L162.882,146.908L162.874,176.606L162.652,178.803L162.011,180.867L161.001,182.729L159.67,184.344L158.055,185.676L156.193,186.687L154.128,187.328L151.931,187.55ZM140.988,165.663L140.989,157.855L133.181,157.857L133.179,165.664L140.988,165.663Z" style="fill:white;"/>
                    <path d="M42.405,126.734L12.708,126.739L10.562,126.527L8.518,125.905L6.634,124.899L4.971,123.535L3.603,121.869L2.596,119.984L1.975,117.94L1.763,115.794L1.769,86.099L1.992,83.9L2.633,81.836L3.643,79.974L4.975,78.36L6.59,77.027L8.452,76.017L10.516,75.376C10.516,75.376 12.714,75.154 12.712,75.154L42.411,75.146L44.557,75.358L46.6,75.979L48.484,76.985L50.151,78.352L51.518,80.02L52.523,81.903L53.144,83.946L53.356,86.091L53.349,115.789L53.127,117.987L52.486,120.051L51.476,121.913L50.144,123.528L48.529,124.86L46.667,125.871L44.603,126.511L42.405,126.734ZM31.463,104.846L31.465,97.039L23.657,97.041L23.655,104.847L31.463,104.846Z" style="fill:white;"/>
                    <path d="M145.705,30.639L181.445,92.543C183.965,96.907 183.965,102.283 181.445,106.647L145.705,168.551C143.185,172.915 138.53,175.603 133.49,175.603L62.01,175.603C56.972,175.603 52.315,172.915 49.796,168.551L14.055,106.647C11.536,102.283 11.536,96.907 14.055,92.543L49.795,30.639C52.315,26.275 56.972,23.587 62.01,23.587L133.49,23.587C138.53,23.587 143.186,26.276 145.705,30.639Z" style="fill:white;"/>
                </g>
            </g>
            <g transform="matrix(0.888182,0,0,0.888182,0,0)">
                <path d="M74.884,18.321C85.661,24.543 89.359,38.347 83.133,49.129C76.908,59.911 63.105,63.611 52.328,57.389C41.552,51.168 37.854,37.363 44.079,26.581C50.304,15.799 64.108,12.1 74.884,18.321ZM71.182,24.733C63.945,20.554 54.672,23.041 50.491,30.283C46.31,37.526 48.793,46.798 56.03,50.977C63.269,55.156 72.541,52.67 76.722,45.428C80.903,38.185 78.421,28.912 71.182,24.733Z" style="fill:rgb(185,179,0);"/>
            </g>
            <g transform="matrix(0.888182,0,0,0.888182,0,0)">
                <path d="M73.033,21.527C82.041,26.728 85.13,38.267 79.927,47.278C74.724,56.29 63.187,59.384 54.179,54.183C45.171,48.982 42.082,37.444 47.285,28.432C52.488,19.421 64.025,16.327 73.033,21.527Z" style="fill:rgb(254,240,25);"/>
            </g>
            <g transform="matrix(0.888182,0,0,0.888182,0,0)">
                <path d="M178.947,79.493C189.722,85.715 193.421,99.519 187.196,110.301C180.971,121.083 167.167,124.782 156.391,118.561C145.614,112.339 141.917,98.535 148.142,87.753C154.367,76.971 168.17,73.271 178.947,79.493ZM175.245,85.904C168.007,81.725 158.734,84.212 154.553,91.455C150.371,98.697 152.854,107.97 160.093,112.149C167.331,116.328 176.602,113.841 180.784,106.599C184.965,99.357 182.484,90.084 175.245,85.904Z" style="fill:rgb(185,179,0);"/>
            </g>
            <g transform="matrix(0.888182,0,0,0.888182,0,0)">
                <path d="M177.096,82.699C186.103,87.9 189.193,99.438 183.99,108.45C178.787,117.462 167.25,120.556 158.242,115.355C149.234,110.154 146.145,98.616 151.348,89.604C156.55,80.593 168.088,77.499 177.096,82.699Z" style="fill:rgb(254,240,25);"/>
            </g>
            <g transform="matrix(0.888182,0,0,0.888182,0,0)">
                <path d="M76.576,142.226C87.351,148.447 91.051,162.248 84.828,173.026C78.605,183.804 64.804,187.5 54.028,181.279C43.251,175.057 39.552,161.257 45.775,150.478C51.997,139.701 65.799,136.004 76.576,142.226ZM72.875,148.634C65.637,144.455 56.366,146.94 52.186,154.18C48.006,161.42 50.49,170.691 57.728,174.87C64.966,179.049 74.237,176.564 78.417,169.324C82.597,162.084 80.113,152.813 72.875,148.634Z" style="fill:rgb(185,179,0);"/>
            </g>
            <g transform="matrix(0.888182,0,0,0.888182,0,0)">
                <path d="M74.725,145.43C83.733,150.631 86.824,162.167 81.623,171.175C76.422,180.183 64.886,183.275 55.878,178.074C46.871,172.873 43.78,161.337 48.981,152.329C54.182,143.321 65.717,140.23 74.725,145.43Z" style="fill:rgb(254,240,25);"/>
            </g>
            <g transform="matrix(0.888182,0,0,0.888182,0,0)">
                <path d="M145.581,55.308L117.638,55.313C116.715,55.313 115.829,54.947 115.175,54.293C114.522,53.64 114.155,52.754 114.155,51.83L114.161,23.889C114.161,21.965 115.72,20.405 117.645,20.405L145.588,20.397C146.511,20.397 147.397,20.764 148.05,21.417C148.704,22.07 149.07,22.957 149.07,23.881L149.065,51.825C149.065,53.748 147.504,55.308 145.581,55.308ZM142.099,48.343L142.103,27.364L121.127,27.37L121.123,48.346L142.099,48.343Z" style="fill:rgb(185,179,0);"/>
            </g>
            <g transform="matrix(0.888182,0,0,0.888182,0,0)">
                <path d="M145.581,51.825L117.638,51.83L117.645,23.889L145.588,23.881L145.581,51.825Z" style="fill:rgb(254,240,25);"/>
            </g>
            <g transform="matrix(0.888182,0,0,0.888182,0,0)">
                <path d="M151.93,180.308L122.232,180.313C121.251,180.313 120.309,179.923 119.615,179.229C118.92,178.535 118.53,177.593 118.53,176.611L118.537,146.915C118.537,144.871 120.194,143.213 122.239,143.213L151.937,143.206C152.918,143.206 153.86,143.596 154.554,144.29C155.249,144.984 155.639,145.925 155.639,146.908L155.631,176.606C155.631,178.65 153.974,180.308 151.93,180.308ZM148.229,172.905L148.234,150.611L125.94,150.616L125.935,172.908L148.229,172.905Z" style="fill:rgb(185,179,0);"/>
            </g>
            <g transform="matrix(0.888182,0,0,0.888182,0,0)">
                <path d="M151.93,176.606L122.232,176.611L122.239,146.915L151.937,146.908L151.93,176.606Z" style="fill:rgb(254,240,25);"/>
            </g>
            <g transform="matrix(0.888182,0,0,0.888182,0,0)">
                <path d="M42.404,119.491L12.708,119.497C11.725,119.497 10.785,119.106 10.09,118.412C9.396,117.718 9.005,116.777 9.005,115.794L9.012,86.099C9.012,84.054 10.67,82.397 12.714,82.397L42.411,82.389C43.393,82.389 44.335,82.779 45.03,83.473C45.723,84.167 46.113,85.109 46.113,86.091L46.107,115.789C46.107,117.833 44.449,119.491 42.404,119.491ZM38.705,112.088L38.709,89.794L16.415,89.8L16.411,112.091L38.705,112.088Z" style="fill:rgb(185,179,0);"/>
            </g>
            <g transform="matrix(0.888182,0,0,0.888182,0,0)">
                <path d="M42.404,115.789L12.708,115.794L12.714,86.099L42.411,86.091L42.404,115.789Z" style="fill:rgb(254,240,25);"/>
            </g>
            <g transform="matrix(0.888182,0,0,0.888182,0,0)">
                <path d="M89.285,41.391L89.285,34.891C89.285,34.265 89.793,33.758 90.418,33.758L99.617,33.758L99.616,28.854C99.616,28.397 99.892,27.983 100.315,27.808C100.738,27.633 101.226,27.73 101.55,28.053L110.836,37.339C111.278,37.781 111.278,38.499 110.836,38.941L101.55,48.228C101.225,48.551 100.738,48.648 100.316,48.473C99.893,48.298 99.616,47.885 99.617,47.427L99.616,42.523L90.418,42.523C89.792,42.523 89.286,42.016 89.285,41.391Z" style="fill:rgb(43,36,29);"/>
            </g>
            <g transform="matrix(0.888182,0,0,0.888182,0,0)">
                <path d="M143.006,61.954L148.636,58.704C149.178,58.391 149.871,58.577 150.184,59.118L153.355,64.112L157.602,61.66C157.998,61.431 158.494,61.464 158.858,61.742C159.22,62.021 159.38,62.492 159.262,62.934L155.863,75.619C155.701,76.223 155.08,76.582 154.476,76.42L141.791,73.021C141.348,72.903 141.021,72.529 140.961,72.074C140.901,71.62 141.121,71.176 141.517,70.946L145.764,68.495L142.592,63.501C142.279,62.959 142.465,62.267 143.006,61.954Z" style="fill:rgb(43,36,29);"/>
            </g>
            <g transform="matrix(0.888182,0,0,0.888182,0,0)">
                <path d="M91.954,164.104L91.954,157.603C91.953,156.978 92.461,156.47 93.086,156.471L104.175,156.471L104.175,151.566C104.175,151.108 104.451,150.696 104.874,150.521C105.297,150.345 105.784,150.442 106.108,150.766L115.395,160.052C115.837,160.495 115.837,161.211 115.395,161.654L106.108,170.94C105.784,171.264 105.297,171.362 104.874,171.185C104.451,171.011 104.174,170.598 104.175,170.14L104.175,165.235L93.086,165.235C92.46,165.236 91.954,164.728 91.954,164.104Z" style="fill:rgb(43,36,29);"/>
            </g>
            <g transform="matrix(0.888182,0,0,0.888182,0,0)">
                <path d="M51.019,136.554L45.389,139.804C44.847,140.117 44.155,139.931 43.842,139.39L40.908,134.307L36.661,136.759C36.264,136.988 35.768,136.955 35.405,136.676C35.043,136.397 34.883,135.928 35.001,135.485L38.4,122.799C38.562,122.195 39.183,121.837 39.787,121.999L52.472,125.398C52.915,125.517 53.242,125.89 53.302,126.344C53.362,126.798 53.142,127.243 52.746,127.473L48.498,129.924L51.433,135.007C51.747,135.548 51.56,136.241 51.019,136.554Z" style="fill:rgb(43,36,29);"/>
            </g>
            <g transform="matrix(0.888182,0,0,0.888182,0,0)">
                <path d="M45.476,78.751L39.847,75.501C39.305,75.189 39.11,74.512 39.411,73.99L42.365,68.874L38.118,66.422C37.722,66.193 37.497,65.757 37.548,65.316C37.601,64.875 37.919,64.518 38.356,64.41L50.87,61.307C51.466,61.159 52.087,61.517 52.257,62.108L55.827,74.497C55.952,74.929 55.801,75.383 55.445,75.649C55.089,75.914 54.6,75.938 54.203,75.709L49.956,73.257L47.002,78.373C46.701,78.895 46.018,79.064 45.476,78.751Z" style="fill:rgb(43,36,29);"/>
            </g>
            <g transform="matrix(0.888182,0,0,0.888182,0,0)">
                <path d="M148.742,137.95L143.111,134.699C142.57,134.387 142.355,133.745 142.632,133.265L146.081,127.291L141.834,124.839C141.438,124.61 141.203,124.192 141.239,123.779C141.274,123.368 141.573,123.043 141.997,122.956L154.149,120.483C154.727,120.364 155.348,120.723 155.535,121.283L159.469,133.044C159.605,133.454 159.474,133.876 159.135,134.112C158.796,134.349 158.316,134.354 157.919,134.125L153.672,131.673L150.223,137.648C149.946,138.128 149.283,138.263 148.742,137.95Z" style="fill:rgb(43,36,29);"/>
            </g>
            <g transform="matrix(0.888182,0,0,0.888182,0,0)">
                <path d="M128.622,63.095L128.622,136.095C128.622,136.991 127.896,137.717 127,137.717L73,137.717C72.104,137.717 71.378,136.991 71.378,136.095L71.378,63.095C71.378,62.199 72.104,61.473 73,61.473L127,61.473C127.896,61.473 128.622,62.199 128.622,63.095Z" style="fill:rgb(43,36,29);"/>
            </g>
            <g transform="matrix(0.888182,0,0,0.888182,0,0)">
                <rect x="82" y="73" width="32" height="4" style="fill:white;"/>
            </g>
            <g transform="matrix(0.888182,0,0,0.888182,0,0)">
                <rect x="82" y="81" width="35" height="4" style="fill:white;"/>
            </g>
            <g transform="matrix(0.888182,0,0,0.888182,0,0)">
                <rect x="82" y="89" width="32" height="4" style="fill:white;"/>
            </g>
            <g transform="matrix(0.888182,0,0,0.888182,0,0)">
                <rect x="82" y="96.971" width="35" height="4" style="fill:white;"/>
            </g>
            <g transform="matrix(0.888182,0,0,0.888182,0,0)">
                <rect x="82" y="104.971" width="25" height="4" style="fill:white;"/>
            </g>
        </g>
    </g>
    <path d="M198.43,109.421L198.43,104.281L205.311,102.457L204.316,104.033L204.316,70.873L205.477,72.614L198.43,70.707L198.43,65.567L212.026,64.904L213.352,72.862L212.026,72.531C214.513,69.933 216.945,67.944 219.321,66.562C221.753,65.125 224.378,64.407 227.196,64.407C228.965,64.407 230.816,64.683 232.751,65.236L232.087,79.163L226.202,79.163L225.124,70.624L226.036,72.614C225.704,72.503 225.345,72.42 224.958,72.365C224.571,72.31 224.184,72.282 223.798,72.282C221.918,72.282 220.067,72.862 218.243,74.023C216.475,75.128 214.872,76.593 213.435,78.417L214.264,75.681L214.264,104.033L213.021,102.457L221.476,104.281L221.476,109.421L198.43,109.421Z" style="fill-rule:nonzero;"/>
    <path d="M254.305,110.333C250.436,110.333 247.009,109.504 244.025,107.846C241.041,106.133 238.719,103.618 237.061,100.302C235.403,96.986 234.574,92.924 234.574,88.116C234.574,83.197 235.431,78.969 237.144,75.432C238.913,71.895 241.372,69.187 244.522,67.308C247.728,65.374 251.514,64.407 255.88,64.407C260.025,64.407 263.396,65.263 265.993,66.976C268.646,68.634 270.608,70.928 271.879,73.857C273.15,76.786 273.786,80.102 273.786,83.805C273.786,84.634 273.758,85.463 273.703,86.292C273.648,87.121 273.537,88.033 273.371,89.028L242.533,89.028L242.533,82.727L264.667,82.727L263.506,83.473C263.562,81.263 263.313,79.273 262.76,77.505C262.263,75.736 261.379,74.327 260.108,73.277C258.836,72.227 257.151,71.702 255.051,71.702C252.674,71.702 250.712,72.365 249.165,73.691C247.673,75.018 246.567,76.814 245.849,79.08C245.186,81.346 244.854,83.916 244.854,86.789C244.854,89.94 245.269,92.731 246.098,95.162C246.926,97.539 248.225,99.418 249.994,100.799C251.762,102.181 254.001,102.872 256.709,102.872C258.643,102.872 260.743,102.513 263.009,101.794C265.275,101.076 267.624,99.97 270.055,98.478L273.454,103.867C270.304,106.022 267.099,107.652 263.838,108.758C260.577,109.808 257.399,110.333 254.305,110.333Z" style="fill-rule:nonzero;"/>
    <path d="M279.589,109.421L279.589,104.281L286.718,102.375L285.475,103.867L285.475,70.956L286.718,72.614L279.589,70.707L279.589,65.567L293.184,64.904L294.511,72.945L293.184,72.448C295.892,69.685 298.739,67.667 301.723,66.396C304.707,65.07 307.554,64.407 310.262,64.407C313.965,64.407 317.032,65.567 319.464,67.888C321.951,70.21 323.166,73.719 323.111,78.417L323.111,103.867L322.116,102.375L328.997,104.281L328.997,109.421L307.775,109.421L307.775,104.281L314.407,102.54L313.163,104.115L313.163,80.572C313.163,77.643 312.5,75.487 311.174,74.106C309.902,72.724 308.189,72.033 306.034,72.033C304.376,72.033 302.552,72.503 300.562,73.443C298.573,74.327 296.611,75.709 294.677,77.588L295.423,76.013L295.423,104.115L294.428,102.54L300.811,104.281L300.811,109.421L279.589,109.421Z" style="fill-rule:nonzero;"/>
    <path d="M352.789,110.333C348.921,110.333 345.494,109.504 342.51,107.846C339.525,106.133 337.204,103.618 335.546,100.302C333.888,96.986 333.059,92.924 333.059,88.116C333.059,83.197 333.916,78.969 335.629,75.432C337.398,71.895 339.857,69.187 343.007,67.308C346.212,65.374 349.998,64.407 354.364,64.407C358.509,64.407 361.88,65.263 364.478,66.976C367.131,68.634 369.093,70.928 370.364,73.857C371.635,76.786 372.271,80.102 372.271,83.805C372.271,84.634 372.243,85.463 372.188,86.292C372.132,87.121 372.022,88.033 371.856,89.028L341.017,89.028L341.017,82.727L363.152,82.727L361.991,83.473C362.046,81.263 361.798,79.273 361.245,77.505C360.748,75.736 359.863,74.327 358.592,73.277C357.321,72.227 355.635,71.702 353.535,71.702C351.159,71.702 349.197,72.365 347.649,73.691C346.157,75.018 345.052,76.814 344.333,79.08C343.67,81.346 343.339,83.916 343.339,86.789C343.339,89.94 343.753,92.731 344.582,95.162C345.411,97.539 346.71,99.418 348.478,100.799C350.247,102.181 352.485,102.872 355.193,102.872C357.128,102.872 359.228,102.513 361.494,101.794C363.76,101.076 366.108,99.97 368.54,98.478L371.939,103.867C368.789,106.022 365.583,107.652 362.323,108.758C359.062,109.808 355.884,110.333 352.789,110.333Z" style="fill-rule:nonzero;"/>
    <path d="M424.414,65.65L441.74,64.987L441.74,70.127L436.435,71.702L437.761,70.541L426.984,109.587L416.207,109.587L406.674,72.779L408.581,72.862L398.052,109.587L387.275,109.587L377.079,70.956L378.239,71.95L373.017,70.79L373.017,65.65L392.001,64.987L392.001,70.127L385.452,71.702L386.529,70.79L394.239,103.618L392.581,103.618L402.86,65.567L413.223,64.904L422.839,103.95L421.347,103.95L429.637,71.039L430.632,72.033L424.414,70.79L424.414,65.65Z" style="fill-rule:nonzero;"/>
    <g transform="matrix(8.81339,0,0,8.81339,-3668.89,-694.403)">
        <g transform="matrix(12,0,0,12,476.776,91.1364)">
        </g>
        <text x="466.909px" y="91.136px" style="font-family:'Constantia', serif;font-size:12px;">JS</text>
    </g>
</svg>
